<svg id="svg" version="1.1" xmlns="http://www.w3.org/2000/svg" xmlns:xlink="http://www.w3.org/1999/xlink" width="400" height="292.35880398671094" viewBox="0, 0, 400,292.35880398671094"><g id="svgg"><path id="path0" d="M0.000 146.199 L 0.000 292.398 200.000 292.398 L 400.000 292.398 400.000 146.199 L 400.000 0.000 200.000 0.000 L 0.000 0.000 0.000 146.199 M381.769 30.249 C 382.592 31.096,382.749 31.472,382.749 32.602 C 382.749 33.732,382.592 34.108,381.769 34.956 L 380.789 35.965 378.001 35.965 C 375.350 35.965,375.190 36.001,374.734 36.696 L 374.256 37.427 369.362 37.427 C 364.785 37.427,364.445 37.465,364.103 38.012 C 363.765 38.552,363.421 38.596,359.553 38.596 C 355.454 38.596,355.356 38.611,354.733 39.327 C 354.103 40.052,354.054 40.058,349.281 40.058 C 344.764 40.058,344.446 40.095,344.152 40.643 C 343.858 41.192,343.540 41.228,338.994 41.228 C 334.174 41.228,334.145 41.232,333.573 41.959 C 333.008 42.678,332.931 42.690,328.790 42.690 C 324.881 42.690,324.560 42.732,324.269 43.275 C 323.975 43.823,323.657 43.860,319.140 43.860 C 314.367 43.860,314.318 43.866,313.688 44.591 C 313.058 45.315,313.011 45.322,308.205 45.322 C 303.674 45.322,303.333 45.360,302.992 45.906 C 302.654 46.447,302.310 46.491,298.423 46.491 C 294.262 46.491,294.214 46.499,293.740 47.222 L 293.261 47.953 288.368 47.953 C 283.791 47.953,283.450 47.991,283.109 48.538 C 282.768 49.084,282.427 49.123,277.972 49.123 C 273.261 49.123,273.193 49.132,272.515 49.854 C 271.837 50.575,271.765 50.585,267.105 50.585 C 262.446 50.585,262.373 50.595,261.696 51.316 C 261.026 52.028,260.906 52.047,256.891 52.047 C 253.089 52.047,252.744 52.092,252.407 52.632 C 252.066 53.178,251.725 53.216,247.272 53.216 C 242.550 53.216,242.497 53.223,241.868 53.947 C 241.238 54.672,241.189 54.678,236.416 54.678 C 231.899 54.678,231.580 54.715,231.287 55.263 C 230.996 55.806,230.674 55.848,226.795 55.848 C 222.716 55.848,222.600 55.865,221.930 56.579 C 221.252 57.300,221.179 57.310,216.534 57.310 C 212.188 57.310,211.787 57.355,211.325 57.895 C 210.862 58.435,210.463 58.480,206.031 58.480 C 201.240 58.480,201.237 58.480,200.758 59.211 C 200.284 59.935,200.238 59.942,196.048 59.942 C 192.134 59.942,191.790 59.985,191.453 60.526 C 191.111 61.073,190.771 61.111,186.194 61.111 L 181.300 61.111 180.821 61.842 L 180.342 62.573 175.415 62.573 C 170.788 62.573,170.469 62.609,170.175 63.158 C 169.885 63.701,169.563 63.743,165.640 63.743 C 161.458 63.743,161.412 63.750,160.938 64.474 L 160.459 65.205 155.556 65.205 L 150.652 65.205 150.173 65.936 L 149.694 66.667 144.740 66.667 C 140.086 66.667,139.768 66.702,139.474 67.251 C 139.180 67.800,138.861 67.836,134.397 67.836 C 129.695 67.836,129.625 67.846,128.947 68.567 C 128.277 69.281,128.161 69.298,124.082 69.298 C 120.203 69.298,119.881 69.340,119.591 69.883 C 119.297 70.432,118.978 70.468,114.432 70.468 C 109.612 70.468,109.584 70.472,109.012 71.199 C 108.446 71.918,108.369 71.930,104.236 71.930 C 101.469 71.930,99.966 72.041,99.834 72.255 C 99.467 72.848,100.409 73.090,103.091 73.095 C 105.552 73.099,105.788 73.152,106.378 73.830 C 106.990 74.534,107.145 74.561,110.514 74.561 C 113.715 74.561,114.041 74.611,114.327 75.146 C 114.608 75.670,114.940 75.731,117.501 75.731 C 120.189 75.731,120.401 75.775,120.998 76.462 C 121.593 77.146,121.813 77.193,124.411 77.193 C 126.871 77.193,127.230 77.260,127.553 77.778 C 127.886 78.310,128.235 78.363,131.450 78.363 C 134.853 78.363,135.005 78.389,135.618 79.094 C 136.212 79.777,136.433 79.825,139.031 79.825 C 141.491 79.825,141.850 79.891,142.173 80.409 C 142.506 80.942,142.855 80.994,146.116 80.994 C 149.610 80.994,149.705 81.011,150.173 81.725 C 150.630 82.423,150.782 82.456,153.540 82.456 C 156.111 82.456,156.468 82.520,156.793 83.041 C 157.117 83.560,157.475 83.626,159.961 83.626 C 162.572 83.626,162.810 83.676,163.450 84.357 C 164.108 85.056,164.285 85.088,167.592 85.088 C 170.731 85.088,171.081 85.141,171.413 85.673 C 171.737 86.191,172.095 86.257,174.581 86.257 C 177.192 86.257,177.430 86.307,178.070 86.988 C 178.706 87.665,178.957 87.719,181.433 87.719 C 183.909 87.719,184.160 87.774,184.795 88.450 C 185.453 89.150,185.630 89.181,188.937 89.181 C 192.076 89.181,192.426 89.235,192.758 89.766 C 193.082 90.285,193.440 90.351,195.926 90.351 C 198.537 90.351,198.775 90.401,199.415 91.082 C 200.055 91.763,200.293 91.813,202.905 91.813 C 205.391 91.813,205.749 91.879,206.072 92.398 C 206.404 92.929,206.754 92.982,209.893 92.982 C 213.201 92.982,213.378 93.014,214.035 93.713 C 214.671 94.390,214.921 94.444,217.403 94.444 C 219.713 94.444,220.158 94.525,220.614 95.029 C 221.086 95.551,221.515 95.614,224.585 95.614 C 227.909 95.614,228.048 95.639,228.603 96.345 C 229.145 97.034,229.339 97.076,231.984 97.076 C 234.474 97.076,234.832 97.142,235.156 97.661 C 235.480 98.181,235.837 98.246,238.376 98.246 C 241.058 98.246,241.271 98.290,241.868 98.977 C 242.478 99.679,242.637 99.708,245.957 99.708 C 249.094 99.708,249.444 99.761,249.775 100.292 C 250.099 100.811,250.457 100.877,252.943 100.877 C 255.555 100.877,255.793 100.927,256.433 101.608 C 257.070 102.287,257.316 102.339,259.848 102.339 C 262.394 102.339,262.619 102.388,263.213 103.070 C 263.823 103.773,263.982 103.801,267.302 103.801 C 270.439 103.801,270.789 103.855,271.120 104.386 C 271.444 104.905,271.802 104.971,274.288 104.971 C 276.900 104.971,277.138 105.021,277.778 105.702 C 278.420 106.385,278.652 106.433,281.327 106.433 C 283.891 106.433,284.223 106.494,284.503 107.018 C 284.789 107.552,285.115 107.602,288.263 107.602 C 291.563 107.602,291.740 107.634,292.398 108.333 C 293.035 109.012,293.280 109.064,295.814 109.064 C 298.182 109.064,298.610 109.142,299.044 109.649 C 299.478 110.156,299.907 110.234,302.260 110.234 C 304.791 110.234,305.018 110.283,305.610 110.965 C 306.221 111.668,306.380 111.696,309.699 111.696 C 312.836 111.696,313.186 111.750,313.518 112.281 C 313.843 112.801,314.200 112.865,316.739 112.865 C 319.420 112.865,319.633 112.910,320.230 113.596 C 320.841 114.299,321.000 114.327,324.319 114.327 C 327.456 114.327,327.806 114.381,328.138 114.912 C 328.462 115.431,328.820 115.497,331.306 115.497 C 333.917 115.497,334.155 115.547,334.795 116.228 C 335.436 116.910,335.671 116.959,338.321 116.959 C 341.027 116.959,341.183 116.993,341.640 117.690 C 342.107 118.402,342.208 118.421,345.618 118.421 C 348.801 118.421,349.151 118.474,349.483 119.006 C 349.808 119.526,350.165 119.591,352.733 119.591 C 355.462 119.591,355.649 119.630,356.193 120.322 C 356.714 120.984,356.971 121.053,358.937 121.053 C 360.789 121.053,361.159 121.138,361.471 121.637 C 361.701 122.004,362.153 122.222,362.687 122.222 C 364.102 122.222,365.497 123.905,365.497 125.612 C 365.497 127.248,364.152 128.939,362.845 128.944 C 362.411 128.946,361.825 129.256,361.458 129.678 C 360.946 130.268,360.551 130.409,359.424 130.409 C 358.387 130.409,357.895 130.561,357.524 130.994 C 357.237 131.329,356.661 131.579,356.177 131.579 C 355.597 131.579,355.180 131.809,354.851 132.310 C 354.519 132.818,354.108 133.041,353.505 133.041 C 352.953 133.041,352.503 133.254,352.271 133.626 C 351.984 134.086,351.589 134.211,350.419 134.211 C 349.211 134.211,348.804 134.348,348.246 134.942 C 347.831 135.383,347.235 135.673,346.743 135.673 C 346.226 135.673,345.812 135.887,345.614 136.257 C 345.360 136.732,345.002 136.842,343.710 136.842 C 342.335 136.842,342.054 136.942,341.640 137.573 C 341.324 138.055,340.891 138.304,340.368 138.304 C 339.901 138.304,339.294 138.604,338.889 139.035 C 338.475 139.476,337.878 139.766,337.386 139.766 C 336.870 139.766,336.455 139.981,336.257 140.351 C 336.005 140.822,335.645 140.936,334.399 140.936 C 333.115 140.936,332.746 141.059,332.218 141.667 C 331.807 142.140,331.276 142.398,330.714 142.398 C 330.144 142.398,329.737 142.599,329.532 142.982 C 329.280 143.454,328.920 143.567,327.674 143.567 C 326.390 143.567,326.021 143.691,325.493 144.298 C 325.144 144.700,324.548 145.029,324.170 145.029 C 323.792 145.029,323.244 145.292,322.953 145.614 C 322.568 146.040,322.053 146.199,321.058 146.199 C 319.980 146.199,319.548 146.352,319.006 146.930 C 318.592 147.371,317.995 147.661,317.503 147.661 C 316.986 147.661,316.572 147.875,316.374 148.246 C 316.169 148.629,315.762 148.830,315.192 148.830 C 314.630 148.830,314.099 149.088,313.688 149.561 C 313.166 150.162,312.787 150.292,311.567 150.292 C 310.399 150.292,310.004 150.417,309.717 150.877 C 309.492 151.237,309.035 151.462,308.530 151.462 C 308.017 151.462,307.468 151.737,307.072 152.193 C 306.558 152.784,306.166 152.924,305.024 152.924 C 303.895 152.924,303.473 153.071,302.924 153.655 C 302.510 154.096,301.914 154.386,301.421 154.386 C 300.905 154.386,300.491 154.600,300.292 154.971 C 300.094 155.341,299.680 155.556,299.163 155.556 C 298.671 155.556,298.075 155.846,297.661 156.287 C 297.103 156.880,296.695 157.018,295.487 157.018 C 294.317 157.018,293.923 157.142,293.635 157.602 C 293.411 157.962,292.953 158.187,292.448 158.187 C 291.936 158.187,291.387 158.462,290.990 158.918 C 290.472 159.515,290.087 159.649,288.901 159.649 C 287.747 159.649,287.383 159.770,287.135 160.234 C 286.929 160.617,286.522 160.819,285.953 160.819 C 285.390 160.819,284.860 161.077,284.448 161.550 C 283.926 162.150,283.547 162.281,282.328 162.281 C 281.159 162.281,280.765 162.405,280.477 162.865 C 280.252 163.225,279.795 163.450,279.288 163.450 C 278.788 163.450,278.195 163.737,277.778 164.181 C 277.363 164.622,276.767 164.912,276.275 164.912 C 275.758 164.912,275.344 165.127,275.146 165.497 C 274.892 165.972,274.534 166.082,273.242 166.082 C 271.867 166.082,271.586 166.181,271.172 166.813 C 270.856 167.295,270.423 167.544,269.900 167.544 C 269.433 167.544,268.826 167.844,268.421 168.275 C 267.863 168.869,267.455 169.006,266.247 169.006 C 265.077 169.006,264.683 169.130,264.395 169.591 C 264.171 169.950,263.713 170.175,263.208 170.175 C 262.696 170.175,262.147 170.451,261.751 170.906 C 261.359 171.357,260.804 171.637,260.306 171.637 C 259.814 171.637,259.354 171.866,259.132 172.222 C 258.841 172.689,258.450 172.807,257.195 172.807 C 255.841 172.807,255.556 172.908,255.144 173.538 C 254.825 174.025,254.396 174.269,253.859 174.269 C 253.416 174.269,252.829 174.532,252.553 174.854 C 252.181 175.289,251.691 175.439,250.639 175.439 C 249.509 175.439,249.087 175.585,248.538 176.170 C 248.124 176.611,247.528 176.901,247.035 176.901 C 246.519 176.901,246.105 177.115,245.906 177.485 C 245.652 177.960,245.294 178.070,244.002 178.070 C 242.628 178.070,242.346 178.170,241.932 178.801 C 241.589 179.324,241.192 179.532,240.534 179.532 C 239.931 179.532,239.489 179.734,239.249 180.117 C 239.017 180.488,238.567 180.702,238.016 180.702 C 237.413 180.702,237.002 180.925,236.669 181.433 C 236.260 182.058,235.969 182.164,234.666 182.164 C 233.419 182.164,233.018 182.296,232.456 182.895 C 232.067 183.309,231.442 183.626,231.014 183.626 C 230.574 183.626,230.105 183.871,229.892 184.211 C 229.601 184.678,229.211 184.795,227.955 184.795 C 226.601 184.795,226.317 184.897,225.904 185.526 C 225.556 186.057,225.166 186.257,224.479 186.257 C 223.849 186.257,223.410 186.453,223.167 186.842 C 222.943 187.202,222.485 187.427,221.980 187.427 C 221.468 187.427,220.919 187.702,220.522 188.158 C 220.004 188.754,219.619 188.889,218.433 188.889 C 217.279 188.889,216.915 189.009,216.667 189.474 C 216.468 189.844,216.054 190.058,215.538 190.058 C 215.045 190.058,214.449 190.348,214.035 190.789 C 213.477 191.383,213.069 191.520,211.861 191.520 C 210.691 191.520,210.297 191.645,210.009 192.105 C 209.780 192.473,209.327 192.690,208.791 192.690 C 208.229 192.690,207.741 192.940,207.362 193.421 C 206.872 194.044,206.547 194.152,205.168 194.152 C 203.805 194.152,203.519 194.245,203.363 194.737 C 203.226 195.167,202.920 195.322,202.207 195.322 C 201.495 195.322,201.109 195.516,200.758 196.053 C 200.436 196.545,200.011 196.784,199.459 196.784 C 198.963 196.784,198.369 197.072,197.953 197.515 C 197.395 198.108,196.988 198.246,195.780 198.246 C 194.609 198.246,194.215 198.370,193.928 198.830 C 193.703 199.190,193.246 199.415,192.740 199.415 C 192.228 199.415,191.679 199.691,191.283 200.146 C 190.764 200.743,190.380 200.877,189.194 200.877 C 188.039 200.877,187.675 200.998,187.427 201.462 C 187.218 201.852,186.815 202.047,186.216 202.047 C 185.606 202.047,185.133 202.282,184.743 202.778 C 184.367 203.256,183.876 203.509,183.322 203.509 C 182.776 203.509,182.366 203.716,182.164 204.094 C 181.910 204.567,181.552 204.678,180.274 204.678 C 178.941 204.678,178.609 204.791,178.122 205.409 C 177.732 205.906,177.259 206.140,176.649 206.140 C 176.051 206.140,175.647 206.335,175.439 206.725 C 175.185 207.198,174.826 207.310,173.561 207.310 C 172.215 207.310,171.930 207.412,171.518 208.041 C 171.171 208.571,170.780 208.772,170.093 208.772 C 169.463 208.772,169.024 208.968,168.781 209.357 C 168.549 209.728,168.099 209.942,167.548 209.942 C 166.945 209.942,166.534 210.165,166.201 210.673 C 165.792 211.297,165.501 211.404,164.200 211.404 C 162.942 211.404,162.569 211.530,162.043 212.135 C 161.651 212.585,161.097 212.865,160.599 212.865 C 160.106 212.865,159.647 213.094,159.425 213.450 C 159.137 213.911,158.743 214.035,157.569 214.035 C 156.327 214.035,155.982 214.157,155.503 214.766 C 155.125 215.248,154.637 215.497,154.075 215.497 C 153.538 215.497,153.086 215.714,152.856 216.082 C 152.569 216.542,152.174 216.667,151.004 216.667 C 149.796 216.667,149.388 216.804,148.830 217.398 C 148.416 217.839,147.820 218.129,147.328 218.129 C 146.811 218.129,146.397 218.343,146.199 218.713 C 146.001 219.084,145.587 219.298,145.070 219.298 C 144.578 219.298,143.982 219.588,143.567 220.029 C 143.009 220.623,142.602 220.760,141.394 220.760 C 140.223 220.760,139.829 220.885,139.542 221.345 C 139.310 221.716,138.860 221.930,138.308 221.930 C 137.705 221.930,137.294 222.153,136.961 222.661 C 136.549 223.291,136.265 223.392,134.910 223.392 C 133.655 223.392,133.265 223.510,132.973 223.977 C 132.734 224.360,132.291 224.561,131.688 224.561 C 131.030 224.561,130.633 224.769,130.290 225.292 C 129.968 225.784,129.543 226.023,128.992 226.023 C 128.496 226.023,127.901 226.312,127.485 226.754 C 126.937 227.338,126.514 227.485,125.390 227.485 C 124.298 227.485,123.899 227.617,123.616 228.070 C 123.377 228.454,122.934 228.655,122.332 228.655 C 121.674 228.655,121.276 228.863,120.933 229.386 C 120.520 230.017,120.238 230.117,118.863 230.117 C 117.571 230.117,117.213 230.227,116.959 230.702 C 116.761 231.072,116.347 231.287,115.830 231.287 C 115.338 231.287,114.742 231.577,114.327 232.018 C 113.770 232.611,113.362 232.749,112.154 232.749 C 110.984 232.749,110.589 232.873,110.302 233.333 C 110.070 233.705,109.620 233.918,109.069 233.918 C 108.465 233.918,108.054 234.141,107.722 234.649 C 107.379 235.172,106.981 235.380,106.323 235.380 C 105.720 235.380,105.278 235.582,105.039 235.965 C 104.747 236.432,104.357 236.550,103.101 236.550 C 101.747 236.550,101.463 236.651,101.050 237.281 C 100.703 237.811,100.312 238.012,99.625 238.012 C 98.995 238.012,98.556 238.207,98.313 238.596 C 98.030 239.050,97.632 239.181,96.540 239.181 C 95.415 239.181,94.993 239.329,94.444 239.912 C 94.039 240.343,93.432 240.643,92.965 240.643 C 92.442 240.643,92.009 240.892,91.694 241.374 C 91.346 241.905,90.955 242.105,90.268 242.105 C 89.639 242.105,89.200 242.301,88.957 242.690 C 88.674 243.143,88.275 243.275,87.183 243.275 C 86.059 243.275,85.636 243.422,85.088 244.006 C 84.670 244.450,84.078 244.737,83.577 244.737 C 83.070 244.737,82.613 244.962,82.388 245.322 C 82.101 245.782,81.706 245.906,80.538 245.906 C 79.318 245.906,78.939 246.037,78.417 246.637 C 78.006 247.111,77.475 247.368,76.913 247.368 C 76.343 247.368,75.936 247.570,75.731 247.953 C 75.478 248.426,75.119 248.538,73.854 248.538 C 72.508 248.538,72.223 248.640,71.811 249.269 C 71.463 249.799,71.072 250.000,70.385 250.000 C 69.756 250.000,69.317 250.196,69.074 250.585 C 68.846 250.949,68.392 251.170,67.867 251.170 C 67.293 251.170,66.875 251.401,66.547 251.901 C 66.134 252.532,65.852 252.632,64.477 252.632 C 63.185 252.632,62.827 252.742,62.573 253.216 C 62.368 253.600,61.961 253.801,61.391 253.801 C 60.829 253.801,60.298 254.059,59.887 254.532 C 59.373 255.123,58.981 255.263,57.840 255.263 C 56.699 255.263,56.307 255.403,55.793 255.994 C 55.400 256.447,54.848 256.725,54.344 256.725 C 53.829 256.725,53.414 256.940,53.216 257.310 C 53.008 257.700,52.604 257.895,52.005 257.895 C 51.396 257.895,50.923 258.130,50.533 258.626 C 50.046 259.244,49.714 259.357,48.381 259.357 C 47.103 259.357,46.745 259.468,46.491 259.942 C 46.293 260.312,45.879 260.526,45.362 260.526 C 44.870 260.526,44.274 260.816,43.860 261.257 C 43.302 261.851,42.894 261.988,41.686 261.988 C 40.516 261.988,40.121 262.113,39.834 262.573 C 39.606 262.938,39.152 263.158,38.628 263.158 C 38.053 263.158,37.635 263.390,37.308 263.889 C 36.894 264.520,36.612 264.620,35.237 264.620 C 33.946 264.620,33.587 264.730,33.333 265.205 C 33.128 265.588,32.721 265.789,32.152 265.789 C 31.589 265.789,31.058 266.047,30.647 266.520 C 30.251 266.976,29.702 267.251,29.190 267.251 C 28.684 267.251,28.227 267.477,28.002 267.836 C 27.715 268.296,27.320 268.421,26.152 268.421 C 24.932 268.421,24.553 268.552,24.031 269.152 C 22.290 271.155,18.713 269.386,18.713 266.520 C 18.713 264.856,20.047 263.166,21.365 263.161 C 21.800 263.159,22.385 262.849,22.752 262.427 C 23.271 261.830,23.655 261.696,24.842 261.696 C 25.996 261.696,26.360 261.576,26.608 261.111 C 26.817 260.721,27.220 260.526,27.819 260.526 C 28.429 260.526,28.902 260.292,29.292 259.795 C 29.778 259.177,30.110 259.064,31.444 259.064 C 32.721 259.064,33.080 258.953,33.333 258.480 C 33.532 258.109,33.946 257.895,34.462 257.895 C 34.955 257.895,35.551 257.605,35.965 257.164 C 36.379 256.723,36.975 256.433,37.468 256.433 C 37.984 256.433,38.398 256.218,38.596 255.848 C 38.850 255.375,39.209 255.263,40.474 255.263 C 41.820 255.263,42.105 255.161,42.517 254.532 C 42.865 254.002,43.256 253.801,43.942 253.801 C 44.572 253.801,45.011 253.605,45.254 253.216 C 45.540 252.758,45.936 252.632,47.080 252.632 C 48.275 252.632,48.658 252.498,49.177 251.901 C 49.574 251.445,50.123 251.170,50.635 251.170 C 51.140 251.170,51.598 250.944,51.822 250.585 C 52.110 250.125,52.504 250.000,53.673 250.000 C 54.892 250.000,55.271 249.869,55.793 249.269 C 56.197 248.804,56.737 248.538,57.274 248.538 C 57.854 248.538,58.271 248.308,58.599 247.807 C 58.932 247.299,59.343 247.076,59.946 247.076 C 60.497 247.076,60.947 246.863,61.179 246.491 C 61.466 246.031,61.861 245.906,63.031 245.906 C 64.239 245.906,64.647 245.769,65.205 245.175 C 65.619 244.734,66.215 244.444,66.707 244.444 C 67.224 244.444,67.638 244.230,67.836 243.860 C 68.089 243.388,68.448 243.275,69.694 243.275 C 70.978 243.275,71.347 243.151,71.875 242.544 C 72.287 242.071,72.817 241.813,73.380 241.813 C 73.949 241.813,74.356 241.611,74.561 241.228 C 74.765 240.847,75.174 240.643,75.735 240.643 C 76.329 240.643,76.742 240.418,77.074 239.912 C 77.486 239.283,77.770 239.181,79.125 239.181 C 80.380 239.181,80.770 239.063,81.062 238.596 C 81.301 238.213,81.744 238.012,82.347 238.012 C 83.005 238.012,83.402 237.804,83.745 237.281 C 84.159 236.649,84.441 236.550,85.815 236.550 C 87.107 236.550,87.465 236.440,87.719 235.965 C 87.917 235.595,88.332 235.380,88.848 235.380 C 89.340 235.380,89.937 235.090,90.351 234.649 C 90.892 234.073,91.325 233.918,92.398 233.918 C 93.470 233.918,93.903 233.764,94.444 233.187 C 94.859 232.746,95.455 232.456,95.947 232.456 C 96.464 232.456,96.878 232.242,97.076 231.871 C 97.274 231.501,97.688 231.287,98.205 231.287 C 98.697 231.287,99.293 230.997,99.708 230.556 C 100.266 229.962,100.673 229.825,101.881 229.825 C 103.051 229.825,103.446 229.700,103.733 229.240 C 103.958 228.880,104.415 228.655,104.921 228.655 C 105.433 228.655,105.982 228.380,106.378 227.924 C 106.893 227.332,107.284 227.193,108.432 227.193 C 109.480 227.193,109.989 227.040,110.380 226.608 C 110.671 226.287,111.269 226.023,111.708 226.023 C 112.236 226.023,112.668 225.777,112.985 225.292 C 113.332 224.762,113.723 224.561,114.410 224.561 C 115.040 224.561,115.479 224.366,115.722 223.977 C 116.005 223.523,116.403 223.392,117.495 223.392 C 118.620 223.392,119.042 223.244,119.591 222.661 C 120.005 222.220,120.601 221.930,121.093 221.930 C 121.610 221.930,122.024 221.715,122.222 221.345 C 122.476 220.870,122.834 220.760,124.126 220.760 C 125.501 220.760,125.783 220.661,126.196 220.029 C 126.525 219.528,126.942 219.298,127.521 219.298 C 128.058 219.298,128.598 219.032,129.002 218.567 C 129.398 218.112,129.947 217.836,130.460 217.836 C 130.965 217.836,131.422 217.611,131.647 217.251 C 131.934 216.791,132.329 216.667,133.497 216.667 C 134.717 216.667,135.096 216.536,135.618 215.936 C 136.029 215.463,136.560 215.205,137.122 215.205 C 137.692 215.205,138.099 215.003,138.304 214.620 C 138.556 214.148,138.916 214.035,140.162 214.035 C 141.446 214.035,141.815 213.911,142.343 213.304 C 142.735 212.854,143.289 212.573,143.787 212.573 C 144.280 212.573,144.739 212.344,144.961 211.988 C 145.244 211.535,145.643 211.404,146.735 211.404 C 147.860 211.404,148.282 211.256,148.830 210.673 C 149.245 210.231,149.841 209.942,150.333 209.942 C 150.850 209.942,151.264 209.727,151.462 209.357 C 151.667 208.973,152.074 208.772,152.644 208.772 C 153.206 208.772,153.737 208.514,154.148 208.041 C 154.676 207.434,155.045 207.310,156.329 207.310 C 157.575 207.310,157.935 207.197,158.187 206.725 C 158.385 206.355,158.799 206.140,159.314 206.140 C 159.818 206.140,160.371 205.862,160.764 205.409 C 161.278 204.818,161.670 204.678,162.813 204.678 C 163.942 204.678,164.364 204.532,164.912 203.947 C 165.327 203.506,165.923 203.216,166.415 203.216 C 166.932 203.216,167.346 203.002,167.544 202.632 C 167.742 202.261,168.156 202.047,168.673 202.047 C 169.165 202.047,169.761 201.757,170.175 201.316 C 170.733 200.722,171.141 200.585,172.349 200.585 C 173.519 200.585,173.914 200.460,174.201 200.000 C 174.426 199.640,174.883 199.415,175.388 199.415 C 175.901 199.415,176.450 199.140,176.846 198.684 C 177.358 198.095,177.753 197.953,178.880 197.953 C 179.918 197.953,180.409 197.802,180.780 197.368 C 181.056 197.047,181.612 196.784,182.017 196.784 C 182.437 196.784,183.025 196.470,183.388 196.053 C 183.916 195.445,184.285 195.322,185.569 195.322 C 186.815 195.322,187.175 195.208,187.427 194.737 C 187.625 194.367,188.039 194.152,188.556 194.152 C 189.048 194.152,189.644 193.862,190.058 193.421 C 190.473 192.980,191.069 192.690,191.561 192.690 C 192.078 192.690,192.492 192.476,192.690 192.105 C 192.944 191.630,193.302 191.520,194.594 191.520 C 195.969 191.520,196.251 191.421,196.664 190.789 C 196.980 190.307,197.413 190.058,197.936 190.058 C 198.403 190.058,199.010 189.759,199.415 189.327 C 199.973 188.734,200.381 188.596,201.589 188.596 C 202.759 188.596,203.153 188.472,203.441 188.012 C 203.665 187.652,204.123 187.427,204.628 187.427 C 205.140 187.427,205.690 187.152,206.086 186.696 C 206.497 186.223,207.028 185.965,207.590 185.965 C 208.160 185.965,208.567 185.763,208.772 185.380 C 209.025 184.907,209.384 184.795,210.649 184.795 C 211.995 184.795,212.280 184.693,212.692 184.064 C 213.016 183.570,213.439 183.333,213.997 183.333 C 214.450 183.333,215.060 183.070,215.351 182.749 C 215.736 182.323,216.251 182.164,217.246 182.164 C 218.324 182.164,218.756 182.010,219.298 181.433 C 219.713 180.992,220.309 180.702,220.801 180.702 C 221.318 180.702,221.732 180.487,221.930 180.117 C 222.184 179.642,222.542 179.532,223.834 179.532 C 225.209 179.532,225.490 179.433,225.904 178.801 C 226.247 178.278,226.644 178.070,227.302 178.070 C 227.905 178.070,228.348 177.869,228.587 177.485 C 228.812 177.126,229.269 176.901,229.774 176.901 C 230.287 176.901,230.836 176.625,231.232 176.170 C 231.746 175.578,232.138 175.439,233.280 175.439 C 234.410 175.439,234.831 175.292,235.380 174.708 C 235.794 174.267,236.391 173.977,236.883 173.977 C 237.399 173.977,237.814 173.762,238.012 173.392 C 238.265 172.919,238.624 172.807,239.889 172.807 C 241.235 172.807,241.520 172.705,241.932 172.076 C 242.280 171.546,242.671 171.345,243.357 171.345 C 243.987 171.345,244.426 171.149,244.669 170.760 C 244.893 170.401,245.351 170.175,245.856 170.175 C 246.369 170.175,246.918 169.900,247.314 169.444 C 247.832 168.848,248.217 168.713,249.403 168.713 C 250.557 168.713,250.921 168.593,251.170 168.129 C 251.368 167.758,251.782 167.544,252.298 167.544 C 252.791 167.544,253.387 167.254,253.801 166.813 C 254.359 166.219,254.767 166.082,255.975 166.082 C 257.145 166.082,257.539 165.957,257.827 165.497 C 258.057 165.129,258.509 164.912,259.046 164.912 C 259.608 164.912,260.095 164.663,260.474 164.181 C 260.960 163.564,261.293 163.450,262.618 163.450 C 263.870 163.450,264.261 163.332,264.552 162.865 C 264.784 162.494,265.234 162.281,265.785 162.281 C 266.388 162.281,266.799 162.058,267.132 161.550 C 267.448 161.068,267.881 160.819,268.404 160.819 C 268.871 160.819,269.478 160.519,269.883 160.088 C 270.441 159.494,270.849 159.357,272.057 159.357 C 273.227 159.357,273.621 159.232,273.909 158.772 C 274.133 158.412,274.591 158.187,275.096 158.187 C 275.608 158.187,276.157 157.912,276.554 157.456 C 277.073 156.859,277.456 156.725,278.651 156.725 C 279.795 156.725,280.191 156.598,280.477 156.140 C 280.704 155.777,281.159 155.556,281.680 155.556 C 282.226 155.556,282.719 155.300,283.093 154.825 C 283.453 154.367,283.964 154.094,284.459 154.094 C 284.894 154.094,285.475 153.830,285.751 153.509 C 286.126 153.071,286.613 152.924,287.695 152.924 C 288.887 152.924,289.239 152.796,289.714 152.193 C 290.104 151.697,290.577 151.462,291.187 151.462 C 291.785 151.462,292.189 151.267,292.398 150.877 C 292.652 150.402,293.010 150.292,294.302 150.292 C 295.676 150.292,295.958 150.193,296.372 149.561 C 296.715 149.038,297.112 148.830,297.770 148.830 C 298.373 148.830,298.816 148.629,299.055 148.246 C 299.287 147.874,299.737 147.661,300.288 147.661 C 300.891 147.661,301.302 147.438,301.635 146.930 C 302.044 146.305,302.335 146.199,303.636 146.199 C 304.895 146.199,305.268 146.073,305.793 145.468 C 306.185 145.017,306.739 144.737,307.238 144.737 C 307.730 144.737,308.189 144.508,308.412 144.152 C 308.699 143.691,309.094 143.567,310.267 143.567 C 311.509 143.567,311.854 143.445,312.333 142.836 C 312.731 142.330,313.194 142.105,313.840 142.105 C 314.455 142.105,314.896 141.907,315.137 141.520 C 315.420 141.067,315.819 140.936,316.911 140.936 C 318.035 140.936,318.458 140.788,319.006 140.205 C 319.420 139.764,320.016 139.474,320.509 139.474 C 321.025 139.474,321.439 139.259,321.637 138.889 C 321.836 138.519,322.250 138.304,322.766 138.304 C 323.259 138.304,323.855 138.014,324.269 137.573 C 324.827 136.979,325.235 136.842,326.443 136.842 C 327.613 136.842,328.007 136.718,328.295 136.257 C 328.524 135.889,328.977 135.673,329.513 135.673 C 330.076 135.673,330.563 135.423,330.942 134.942 C 331.421 134.333,331.766 134.211,333.007 134.211 C 334.181 134.211,334.576 134.086,334.863 133.626 C 335.103 133.242,335.545 133.041,336.148 133.041 C 336.806 133.041,337.203 132.833,337.546 132.310 C 337.869 131.818,338.293 131.579,338.845 131.579 C 339.341 131.579,339.935 131.290,340.351 130.848 C 340.909 130.254,341.317 130.117,342.524 130.117 C 343.695 130.117,344.089 129.992,344.377 129.532 C 344.604 129.168,345.058 128.947,345.583 128.947 C 346.157 128.947,346.576 128.716,346.903 128.216 C 347.314 127.589,347.601 127.485,348.935 127.485 C 349.789 127.485,350.574 127.399,350.680 127.293 C 351.039 126.933,350.224 126.316,349.390 126.316 C 348.858 126.316,348.446 126.105,348.246 125.731 C 347.965 125.206,347.633 125.146,345.026 125.146 C 342.248 125.146,342.098 125.114,341.640 124.415 C 341.172 123.701,341.077 123.684,337.573 123.684 C 334.069 123.684,333.974 123.667,333.506 122.953 C 333.049 122.255,332.899 122.222,330.121 122.222 C 327.513 122.222,327.181 122.162,326.901 121.637 C 326.620 121.113,326.288 121.053,323.681 121.053 C 320.903 121.053,320.752 121.020,320.295 120.322 C 319.827 119.607,319.734 119.591,316.205 119.591 C 312.893 119.591,312.568 119.542,312.281 119.006 C 312.000 118.481,311.668 118.421,309.061 118.421 C 306.283 118.421,306.133 118.389,305.675 117.690 C 305.218 116.992,305.065 116.959,302.316 116.959 C 299.735 116.959,299.403 116.898,299.123 116.374 C 298.837 115.839,298.511 115.789,295.309 115.789 C 291.940 115.789,291.785 115.762,291.173 115.058 C 290.576 114.372,290.364 114.327,287.677 114.327 C 285.115 114.327,284.783 114.266,284.503 113.743 C 284.217 113.208,283.891 113.158,280.690 113.158 C 277.320 113.158,277.165 113.131,276.554 112.427 C 275.957 111.740,275.744 111.696,273.057 111.696 C 270.495 111.696,270.163 111.635,269.883 111.111 C 269.603 110.587,269.271 110.526,266.709 110.526 C 264.022 110.526,263.810 110.482,263.213 109.795 C 262.601 109.092,262.444 109.064,259.100 109.064 C 255.714 109.064,255.610 109.045,255.144 108.333 C 254.686 107.635,254.536 107.602,251.758 107.602 C 249.150 107.602,248.819 107.542,248.538 107.018 C 248.258 106.494,247.926 106.433,245.364 106.433 C 242.677 106.433,242.465 106.388,241.868 105.702 C 241.256 104.998,241.101 104.971,237.732 104.971 C 234.530 104.971,234.204 104.921,233.918 104.386 C 233.638 103.862,233.306 103.801,230.744 103.801 C 228.057 103.801,227.845 103.757,227.248 103.070 C 226.653 102.386,226.433 102.339,223.835 102.339 C 221.374 102.339,221.016 102.273,220.692 101.754 C 220.359 101.221,220.010 101.170,216.749 101.170 C 213.256 101.170,213.160 101.152,212.692 100.439 C 212.235 99.741,212.083 99.708,209.326 99.708 C 206.754 99.708,206.398 99.643,206.072 99.123 C 205.740 98.590,205.391 98.538,202.129 98.538 C 198.636 98.538,198.540 98.521,198.073 97.807 C 197.615 97.109,197.463 97.076,194.706 97.076 C 192.134 97.076,191.778 97.012,191.453 96.491 C 191.129 95.973,190.771 95.906,188.285 95.906 C 185.673 95.906,185.435 95.857,184.795 95.175 C 184.138 94.476,183.961 94.444,180.658 94.444 C 177.299 94.444,177.194 94.425,176.727 93.713 C 176.270 93.015,176.118 92.982,173.361 92.982 C 170.789 92.982,170.433 92.918,170.108 92.398 C 169.784 91.879,169.426 91.813,166.940 91.813 C 164.328 91.813,164.090 91.763,163.450 91.082 C 162.793 90.382,162.616 90.351,159.308 90.351 C 156.170 90.351,155.819 90.297,155.488 89.766 C 155.164 89.247,154.806 89.181,152.320 89.181 C 149.708 89.181,149.470 89.131,148.830 88.450 C 148.195 87.774,147.944 87.719,145.462 87.719 C 143.152 87.719,142.707 87.638,142.251 87.135 C 141.779 86.613,141.351 86.550,138.280 86.550 C 134.957 86.550,134.818 86.524,134.263 85.819 C 133.721 85.130,133.527 85.088,130.881 85.088 C 128.392 85.088,128.034 85.022,127.710 84.503 C 127.385 83.983,127.028 83.918,124.489 83.918 C 121.808 83.918,121.595 83.874,120.998 83.187 C 120.387 82.485,120.228 82.456,116.909 82.456 C 113.772 82.456,113.422 82.403,113.090 81.871 C 112.766 81.353,112.408 81.287,109.922 81.287 C 107.311 81.287,107.073 81.237,106.433 80.556 C 105.775 79.856,105.598 79.825,102.295 79.825 C 98.936 79.825,98.831 79.805,98.365 79.094 C 97.908 78.396,97.756 78.363,94.998 78.363 C 92.427 78.363,92.070 78.298,91.745 77.778 C 91.421 77.259,91.063 77.193,88.577 77.193 C 85.966 77.193,85.728 77.143,85.088 76.462 C 84.483 75.818,84.159 75.731,82.363 75.731 C 78.071 75.731,76.916 72.586,80.078 69.507 L 81.793 67.836 85.142 67.836 C 88.350 67.836,88.518 67.805,89.127 67.105 C 89.747 66.391,89.857 66.374,93.812 66.374 C 97.491 66.374,97.911 66.321,98.392 65.789 C 98.880 65.250,99.292 65.205,103.679 65.205 C 108.406 65.205,108.441 65.200,109.012 64.474 C 109.584 63.746,109.612 63.743,114.432 63.743 C 118.978 63.743,119.297 63.707,119.591 63.158 C 119.881 62.615,120.203 62.573,124.082 62.573 C 128.161 62.573,128.277 62.556,128.947 61.842 C 129.625 61.120,129.695 61.111,134.397 61.111 C 138.861 61.111,139.180 61.074,139.474 60.526 C 139.768 59.977,140.086 59.942,144.740 59.942 L 149.694 59.942 150.173 59.211 C 150.647 58.488,150.698 58.480,154.807 58.480 C 158.861 58.480,158.979 58.462,159.649 57.749 C 160.327 57.027,160.396 57.018,165.099 57.018 C 169.563 57.018,169.882 56.981,170.175 56.433 C 170.469 55.883,170.788 55.848,175.415 55.848 L 180.342 55.848 180.821 55.117 C 181.295 54.393,181.341 54.386,185.523 54.386 C 189.446 54.386,189.768 54.345,190.058 53.801 C 190.352 53.252,190.671 53.216,195.279 53.216 C 200.150 53.216,200.192 53.211,200.823 52.485 C 201.452 51.761,201.501 51.754,206.274 51.754 C 210.791 51.754,211.110 51.718,211.404 51.170 C 211.694 50.627,212.016 50.585,215.912 50.585 C 220.065 50.585,220.113 50.577,220.587 49.854 L 221.066 49.123 226.020 49.123 C 230.674 49.123,230.992 49.087,231.287 48.538 C 231.580 47.990,231.899 47.953,236.416 47.953 C 241.189 47.953,241.238 47.947,241.868 47.222 C 242.498 46.497,242.544 46.491,247.351 46.491 C 251.882 46.491,252.222 46.453,252.564 45.906 C 252.901 45.366,253.246 45.322,257.133 45.322 C 261.294 45.322,261.341 45.314,261.815 44.591 C 262.294 43.860,262.299 43.860,267.061 43.860 C 271.768 43.860,271.837 43.850,272.515 43.129 C 273.193 42.407,273.261 42.398,277.972 42.398 C 282.427 42.398,282.768 42.359,283.109 41.813 C 283.446 41.273,283.791 41.228,287.592 41.228 C 291.607 41.228,291.728 41.210,292.398 40.497 C 293.077 39.774,293.139 39.766,297.934 39.766 C 302.467 39.766,302.807 39.728,303.149 39.181 C 303.489 38.635,303.830 38.596,308.283 38.596 C 313.006 38.596,313.059 38.589,313.688 37.865 C 314.310 37.150,314.410 37.135,318.495 37.135 C 322.350 37.135,322.694 37.090,323.032 36.550 C 323.373 36.003,323.713 35.965,328.198 35.965 C 332.970 35.965,333.002 35.961,333.573 35.234 C 334.145 34.507,334.174 34.503,338.994 34.503 C 343.540 34.503,343.858 34.467,344.152 33.918 C 344.443 33.375,344.764 33.333,348.644 33.333 C 352.723 33.333,352.838 33.316,353.509 32.602 C 354.187 31.881,354.255 31.871,358.967 31.871 C 363.421 31.871,363.762 31.833,364.103 31.287 C 364.445 30.740,364.785 30.702,369.362 30.702 L 374.256 30.702 374.734 29.971 C 375.190 29.276,375.350 29.240,378.001 29.240 L 380.789 29.240 381.769 30.249 " stroke="none" fill="#ec1c24" fill-rule="evenodd"></path><path id="path1" d="M374.734 29.971 L 374.256 30.702 369.362 30.702 C 364.785 30.702,364.445 30.740,364.103 31.287 C 363.762 31.833,363.421 31.871,358.967 31.871 C 354.255 31.871,354.187 31.881,353.509 32.602 C 352.838 33.316,352.723 33.333,348.644 33.333 C 344.764 33.333,344.443 33.375,344.152 33.918 C 343.858 34.467,343.540 34.503,338.994 34.503 C 334.174 34.503,334.145 34.507,333.573 35.234 C 333.002 35.961,332.970 35.965,328.198 35.965 C 323.713 35.965,323.373 36.003,323.032 36.550 C 322.694 37.090,322.350 37.135,318.495 37.135 C 314.410 37.135,314.310 37.150,313.688 37.865 C 313.059 38.589,313.006 38.596,308.283 38.596 C 303.830 38.596,303.489 38.635,303.149 39.181 C 302.807 39.728,302.467 39.766,297.934 39.766 C 293.139 39.766,293.077 39.774,292.398 40.497 C 291.728 41.210,291.607 41.228,287.592 41.228 C 283.791 41.228,283.446 41.273,283.109 41.813 C 282.768 42.359,282.427 42.398,277.972 42.398 C 273.261 42.398,273.193 42.407,272.515 43.129 C 271.837 43.850,271.768 43.860,267.061 43.860 C 262.299 43.860,262.294 43.860,261.815 44.591 C 261.341 45.314,261.294 45.322,257.133 45.322 C 253.246 45.322,252.901 45.366,252.564 45.906 C 252.222 46.453,251.882 46.491,247.351 46.491 C 242.544 46.491,242.498 46.497,241.868 47.222 C 241.238 47.947,241.189 47.953,236.416 47.953 C 231.899 47.953,231.580 47.990,231.287 48.538 C 230.992 49.087,230.674 49.123,226.020 49.123 L 221.066 49.123 220.587 49.854 C 220.113 50.577,220.065 50.585,215.912 50.585 C 212.016 50.585,211.694 50.627,211.404 51.170 C 211.110 51.718,210.791 51.754,206.274 51.754 C 201.501 51.754,201.452 51.761,200.823 52.485 C 200.192 53.211,200.150 53.216,195.279 53.216 C 190.671 53.216,190.352 53.252,190.058 53.801 C 189.768 54.345,189.446 54.386,185.523 54.386 C 181.341 54.386,181.295 54.393,180.821 55.117 L 180.342 55.848 175.415 55.848 C 170.788 55.848,170.469 55.883,170.175 56.433 C 169.882 56.981,169.563 57.018,165.099 57.018 C 160.396 57.018,160.327 57.027,159.649 57.749 C 158.979 58.462,158.861 58.480,154.807 58.480 C 150.698 58.480,150.647 58.488,150.173 59.211 L 149.694 59.942 144.740 59.942 C 140.086 59.942,139.768 59.977,139.474 60.526 C 139.180 61.074,138.861 61.111,134.397 61.111 C 129.695 61.111,129.625 61.120,128.947 61.842 C 128.277 62.556,128.161 62.573,124.082 62.573 C 120.203 62.573,119.881 62.615,119.591 63.158 C 119.297 63.707,118.978 63.743,114.432 63.743 C 109.612 63.743,109.584 63.746,109.012 64.474 C 108.441 65.200,108.406 65.205,103.679 65.205 C 99.292 65.205,98.880 65.250,98.392 65.789 C 97.911 66.321,97.491 66.374,93.812 66.374 C 89.857 66.374,89.747 66.391,89.127 67.105 C 88.518 67.805,88.350 67.836,85.142 67.836 L 81.793 67.836 80.078 69.507 C 76.916 72.586,78.071 75.731,82.363 75.731 C 84.159 75.731,84.483 75.818,85.088 76.462 C 85.728 77.143,85.966 77.193,88.577 77.193 C 91.063 77.193,91.421 77.259,91.745 77.778 C 92.070 78.298,92.427 78.363,94.998 78.363 C 97.756 78.363,97.908 78.396,98.365 79.094 C 98.831 79.805,98.936 79.825,102.295 79.825 C 105.598 79.825,105.775 79.856,106.433 80.556 C 107.073 81.237,107.311 81.287,109.922 81.287 C 112.408 81.287,112.766 81.353,113.090 81.871 C 113.422 82.403,113.772 82.456,116.909 82.456 C 120.228 82.456,120.387 82.485,120.998 83.187 C 121.595 83.874,121.808 83.918,124.489 83.918 C 127.028 83.918,127.385 83.983,127.710 84.503 C 128.034 85.022,128.392 85.088,130.881 85.088 C 133.527 85.088,133.721 85.130,134.263 85.819 C 134.818 86.524,134.957 86.550,138.280 86.550 C 141.351 86.550,141.779 86.613,142.251 87.135 C 142.707 87.638,143.152 87.719,145.462 87.719 C 147.944 87.719,148.195 87.774,148.830 88.450 C 149.470 89.131,149.708 89.181,152.320 89.181 C 154.806 89.181,155.164 89.247,155.488 89.766 C 155.819 90.297,156.170 90.351,159.308 90.351 C 162.616 90.351,162.793 90.382,163.450 91.082 C 164.090 91.763,164.328 91.813,166.940 91.813 C 169.426 91.813,169.784 91.879,170.108 92.398 C 170.433 92.918,170.789 92.982,173.361 92.982 C 176.118 92.982,176.270 93.015,176.727 93.713 C 177.194 94.425,177.299 94.444,180.658 94.444 C 183.961 94.444,184.138 94.476,184.795 95.175 C 185.435 95.857,185.673 95.906,188.285 95.906 C 190.771 95.906,191.129 95.973,191.453 96.491 C 191.778 97.012,192.134 97.076,194.706 97.076 C 197.463 97.076,197.615 97.109,198.073 97.807 C 198.540 98.521,198.636 98.538,202.129 98.538 C 205.391 98.538,205.740 98.590,206.072 99.123 C 206.398 99.643,206.754 99.708,209.326 99.708 C 212.083 99.708,212.235 99.741,212.692 100.439 C 213.160 101.152,213.256 101.170,216.749 101.170 C 220.010 101.170,220.359 101.221,220.692 101.754 C 221.016 102.273,221.374 102.339,223.835 102.339 C 226.433 102.339,226.653 102.386,227.248 103.070 C 227.845 103.757,228.057 103.801,230.744 103.801 C 233.306 103.801,233.638 103.862,233.918 104.386 C 234.204 104.921,234.530 104.971,237.732 104.971 C 241.101 104.971,241.256 104.998,241.868 105.702 C 242.465 106.388,242.677 106.433,245.364 106.433 C 247.926 106.433,248.258 106.494,248.538 107.018 C 248.819 107.542,249.150 107.602,251.758 107.602 C 254.536 107.602,254.686 107.635,255.144 108.333 C 255.610 109.045,255.714 109.064,259.100 109.064 C 262.444 109.064,262.601 109.092,263.213 109.795 C 263.810 110.482,264.022 110.526,266.709 110.526 C 269.271 110.526,269.603 110.587,269.883 111.111 C 270.163 111.635,270.495 111.696,273.057 111.696 C 275.744 111.696,275.957 111.740,276.554 112.427 C 277.165 113.131,277.320 113.158,280.690 113.158 C 283.891 113.158,284.217 113.208,284.503 113.743 C 284.783 114.266,285.115 114.327,287.677 114.327 C 290.364 114.327,290.576 114.372,291.173 115.058 C 291.785 115.762,291.940 115.789,295.309 115.789 C 298.511 115.789,298.837 115.839,299.123 116.374 C 299.403 116.898,299.735 116.959,302.316 116.959 C 305.065 116.959,305.218 116.992,305.675 117.690 C 306.133 118.389,306.283 118.421,309.061 118.421 C 311.668 118.421,312.000 118.481,312.281 119.006 C 312.568 119.542,312.893 119.591,316.205 119.591 C 319.734 119.591,319.827 119.607,320.295 120.322 C 320.752 121.020,320.903 121.053,323.681 121.053 C 326.288 121.053,326.620 121.113,326.901 121.637 C 327.181 122.162,327.513 122.222,330.121 122.222 C 332.899 122.222,333.049 122.255,333.506 122.953 C 333.974 123.667,334.069 123.684,337.573 123.684 C 341.077 123.684,341.172 123.701,341.640 124.415 C 342.098 125.114,342.248 125.146,345.026 125.146 C 347.633 125.146,347.965 125.206,348.246 125.731 C 348.446 126.105,348.858 126.316,349.390 126.316 C 350.224 126.316,351.039 126.933,350.680 127.293 C 350.574 127.399,349.789 127.485,348.935 127.485 C 347.601 127.485,347.314 127.589,346.903 128.216 C 346.576 128.716,346.157 128.947,345.583 128.947 C 345.058 128.947,344.604 129.168,344.377 129.532 C 344.089 129.992,343.695 130.117,342.524 130.117 C 341.317 130.117,340.909 130.254,340.351 130.848 C 339.935 131.290,339.341 131.579,338.845 131.579 C 338.293 131.579,337.869 131.818,337.546 132.310 C 337.203 132.833,336.806 133.041,336.148 133.041 C 335.545 133.041,335.103 133.242,334.863 133.626 C 334.576 134.086,334.181 134.211,333.007 134.211 C 331.766 134.211,331.421 134.333,330.942 134.942 C 330.563 135.423,330.076 135.673,329.513 135.673 C 328.977 135.673,328.524 135.889,328.295 136.257 C 328.007 136.718,327.613 136.842,326.443 136.842 C 325.235 136.842,324.827 136.979,324.269 137.573 C 323.855 138.014,323.259 138.304,322.766 138.304 C 322.250 138.304,321.836 138.519,321.637 138.889 C 321.439 139.259,321.025 139.474,320.509 139.474 C 320.016 139.474,319.420 139.764,319.006 140.205 C 318.458 140.788,318.035 140.936,316.911 140.936 C 315.819 140.936,315.420 141.067,315.137 141.520 C 314.896 141.907,314.455 142.105,313.840 142.105 C 313.194 142.105,312.731 142.330,312.333 142.836 C 311.854 143.445,311.509 143.567,310.267 143.567 C 309.094 143.567,308.699 143.691,308.412 144.152 C 308.189 144.508,307.730 144.737,307.238 144.737 C 306.739 144.737,306.185 145.017,305.793 145.468 C 305.268 146.073,304.895 146.199,303.636 146.199 C 302.335 146.199,302.044 146.305,301.635 146.930 C 301.302 147.438,300.891 147.661,300.288 147.661 C 299.737 147.661,299.287 147.874,299.055 148.246 C 298.816 148.629,298.373 148.830,297.770 148.830 C 297.112 148.830,296.715 149.038,296.372 149.561 C 295.958 150.193,295.676 150.292,294.302 150.292 C 293.010 150.292,292.652 150.402,292.398 150.877 C 292.189 151.267,291.785 151.462,291.187 151.462 C 290.577 151.462,290.104 151.697,289.714 152.193 C 289.239 152.796,288.887 152.924,287.695 152.924 C 286.613 152.924,286.126 153.071,285.751 153.509 C 285.475 153.830,284.894 154.094,284.459 154.094 C 283.964 154.094,283.453 154.367,283.093 154.825 C 282.719 155.300,282.226 155.556,281.680 155.556 C 281.159 155.556,280.704 155.777,280.477 156.140 C 280.191 156.598,279.795 156.725,278.651 156.725 C 277.456 156.725,277.073 156.859,276.554 157.456 C 276.157 157.912,275.608 158.187,275.096 158.187 C 274.591 158.187,274.133 158.412,273.909 158.772 C 273.621 159.232,273.227 159.357,272.057 159.357 C 270.849 159.357,270.441 159.494,269.883 160.088 C 269.478 160.519,268.871 160.819,268.404 160.819 C 267.881 160.819,267.448 161.068,267.132 161.550 C 266.799 162.058,266.388 162.281,265.785 162.281 C 265.234 162.281,264.784 162.494,264.552 162.865 C 264.261 163.332,263.870 163.450,262.618 163.450 C 261.293 163.450,260.960 163.564,260.474 164.181 C 260.095 164.663,259.608 164.912,259.046 164.912 C 258.509 164.912,258.057 165.129,257.827 165.497 C 257.539 165.957,257.145 166.082,255.975 166.082 C 254.767 166.082,254.359 166.219,253.801 166.813 C 253.387 167.254,252.791 167.544,252.298 167.544 C 251.782 167.544,251.368 167.758,251.170 168.129 C 250.921 168.593,250.557 168.713,249.403 168.713 C 248.217 168.713,247.832 168.848,247.314 169.444 C 246.918 169.900,246.369 170.175,245.856 170.175 C 245.351 170.175,244.893 170.401,244.669 170.760 C 244.426 171.149,243.987 171.345,243.357 171.345 C 242.671 171.345,242.280 171.546,241.932 172.076 C 241.520 172.705,241.235 172.807,239.889 172.807 C 238.624 172.807,238.265 172.919,238.012 173.392 C 237.814 173.762,237.399 173.977,236.883 173.977 C 236.391 173.977,235.794 174.267,235.380 174.708 C 234.831 175.292,234.410 175.439,233.280 175.439 C 232.138 175.439,231.746 175.578,231.232 176.170 C 230.836 176.625,230.287 176.901,229.774 176.901 C 229.269 176.901,228.812 177.126,228.587 177.485 C 228.348 177.869,227.905 178.070,227.302 178.070 C 226.644 178.070,226.247 178.278,225.904 178.801 C 225.490 179.433,225.209 179.532,223.834 179.532 C 222.542 179.532,222.184 179.642,221.930 180.117 C 221.732 180.487,221.318 180.702,220.801 180.702 C 220.309 180.702,219.713 180.992,219.298 181.433 C 218.756 182.010,218.324 182.164,217.246 182.164 C 216.251 182.164,215.736 182.323,215.351 182.749 C 215.060 183.070,214.450 183.333,213.997 183.333 C 213.439 183.333,213.016 183.570,212.692 184.064 C 212.280 184.693,211.995 184.795,210.649 184.795 C 209.384 184.795,209.025 184.907,208.772 185.380 C 208.567 185.763,208.160 185.965,207.590 185.965 C 207.028 185.965,206.497 186.223,206.086 186.696 C 205.690 187.152,205.140 187.427,204.628 187.427 C 204.123 187.427,203.665 187.652,203.441 188.012 C 203.153 188.472,202.759 188.596,201.589 188.596 C 200.381 188.596,199.973 188.734,199.415 189.327 C 199.010 189.759,198.403 190.058,197.936 190.058 C 197.413 190.058,196.980 190.307,196.664 190.789 C 196.251 191.421,195.969 191.520,194.594 191.520 C 193.302 191.520,192.944 191.630,192.690 192.105 C 192.492 192.476,192.078 192.690,191.561 192.690 C 191.069 192.690,190.473 192.980,190.058 193.421 C 189.644 193.862,189.048 194.152,188.556 194.152 C 188.039 194.152,187.625 194.367,187.427 194.737 C 187.175 195.208,186.815 195.322,185.569 195.322 C 184.285 195.322,183.916 195.445,183.388 196.053 C 183.025 196.470,182.437 196.784,182.017 196.784 C 181.612 196.784,181.056 197.047,180.780 197.368 C 180.409 197.802,179.918 197.953,178.880 197.953 C 177.753 197.953,177.358 198.095,176.846 198.684 C 176.450 199.140,175.901 199.415,175.388 199.415 C 174.883 199.415,174.426 199.640,174.201 200.000 C 173.914 200.460,173.519 200.585,172.349 200.585 C 171.141 200.585,170.733 200.722,170.175 201.316 C 169.761 201.757,169.165 202.047,168.673 202.047 C 168.156 202.047,167.742 202.261,167.544 202.632 C 167.346 203.002,166.932 203.216,166.415 203.216 C 165.923 203.216,165.327 203.506,164.912 203.947 C 164.364 204.532,163.942 204.678,162.813 204.678 C 161.670 204.678,161.278 204.818,160.764 205.409 C 160.371 205.862,159.818 206.140,159.314 206.140 C 158.799 206.140,158.385 206.355,158.187 206.725 C 157.935 207.197,157.575 207.310,156.329 207.310 C 155.045 207.310,154.676 207.434,154.148 208.041 C 153.737 208.514,153.206 208.772,152.644 208.772 C 152.074 208.772,151.667 208.973,151.462 209.357 C 151.264 209.727,150.850 209.942,150.333 209.942 C 149.841 209.942,149.245 210.231,148.830 210.673 C 148.282 211.256,147.860 211.404,146.735 211.404 C 145.643 211.404,145.244 211.535,144.961 211.988 C 144.739 212.344,144.280 212.573,143.787 212.573 C 143.289 212.573,142.735 212.854,142.343 213.304 C 141.815 213.911,141.446 214.035,140.162 214.035 C 138.916 214.035,138.556 214.148,138.304 214.620 C 138.099 215.003,137.692 215.205,137.122 215.205 C 136.560 215.205,136.029 215.463,135.618 215.936 C 135.096 216.536,134.717 216.667,133.497 216.667 C 132.329 216.667,131.934 216.791,131.647 217.251 C 131.422 217.611,130.965 217.836,130.460 217.836 C 129.947 217.836,129.398 218.112,129.002 218.567 C 128.598 219.032,128.058 219.298,127.521 219.298 C 126.942 219.298,126.525 219.528,126.196 220.029 C 125.783 220.661,125.501 220.760,124.126 220.760 C 122.834 220.760,122.476 220.870,122.222 221.345 C 122.024 221.715,121.610 221.930,121.093 221.930 C 120.601 221.930,120.005 222.220,119.591 222.661 C 119.042 223.244,118.620 223.392,117.495 223.392 C 116.403 223.392,116.005 223.523,115.722 223.977 C 115.479 224.366,115.040 224.561,114.410 224.561 C 113.723 224.561,113.332 224.762,112.985 225.292 C 112.668 225.777,112.236 226.023,111.708 226.023 C 111.269 226.023,110.671 226.287,110.380 226.608 C 109.989 227.040,109.480 227.193,108.432 227.193 C 107.284 227.193,106.893 227.332,106.378 227.924 C 105.982 228.380,105.433 228.655,104.921 228.655 C 104.415 228.655,103.958 228.880,103.733 229.240 C 103.446 229.700,103.051 229.825,101.881 229.825 C 100.673 229.825,100.266 229.962,99.708 230.556 C 99.293 230.997,98.697 231.287,98.205 231.287 C 97.688 231.287,97.274 231.501,97.076 231.871 C 96.878 232.242,96.464 232.456,95.947 232.456 C 95.455 232.456,94.859 232.746,94.444 233.187 C 93.903 233.764,93.470 233.918,92.398 233.918 C 91.325 233.918,90.892 234.073,90.351 234.649 C 89.937 235.090,89.340 235.380,88.848 235.380 C 88.332 235.380,87.917 235.595,87.719 235.965 C 87.465 236.440,87.107 236.550,85.815 236.550 C 84.441 236.550,84.159 236.649,83.745 237.281 C 83.402 237.804,83.005 238.012,82.347 238.012 C 81.744 238.012,81.301 238.213,81.062 238.596 C 80.770 239.063,80.380 239.181,79.125 239.181 C 77.770 239.181,77.486 239.283,77.074 239.912 C 76.742 240.418,76.329 240.643,75.735 240.643 C 75.174 240.643,74.765 240.847,74.561 241.228 C 74.356 241.611,73.949 241.813,73.380 241.813 C 72.817 241.813,72.287 242.071,71.875 242.544 C 71.347 243.151,70.978 243.275,69.694 243.275 C 68.448 243.275,68.089 243.388,67.836 243.860 C 67.638 244.230,67.224 244.444,66.707 244.444 C 66.215 244.444,65.619 244.734,65.205 245.175 C 64.647 245.769,64.239 245.906,63.031 245.906 C 61.861 245.906,61.466 246.031,61.179 246.491 C 60.947 246.863,60.497 247.076,59.946 247.076 C 59.343 247.076,58.932 247.299,58.599 247.807 C 58.271 248.308,57.854 248.538,57.274 248.538 C 56.737 248.538,56.197 248.804,55.793 249.269 C 55.271 249.869,54.892 250.000,53.673 250.000 C 52.504 250.000,52.110 250.125,51.822 250.585 C 51.598 250.944,51.140 251.170,50.635 251.170 C 50.123 251.170,49.574 251.445,49.177 251.901 C 48.658 252.498,48.275 252.632,47.080 252.632 C 45.936 252.632,45.540 252.758,45.254 253.216 C 45.011 253.605,44.572 253.801,43.942 253.801 C 43.256 253.801,42.865 254.002,42.517 254.532 C 42.105 255.161,41.820 255.263,40.474 255.263 C 39.209 255.263,38.850 255.375,38.596 255.848 C 38.398 256.218,37.984 256.433,37.468 256.433 C 36.975 256.433,36.379 256.723,35.965 257.164 C 35.551 257.605,34.955 257.895,34.462 257.895 C 33.946 257.895,33.532 258.109,33.333 258.480 C 33.080 258.953,32.721 259.064,31.444 259.064 C 30.110 259.064,29.778 259.177,29.292 259.795 C 28.902 260.292,28.429 260.526,27.819 260.526 C 27.220 260.526,26.817 260.721,26.608 261.111 C 26.360 261.576,25.996 261.696,24.842 261.696 C 23.655 261.696,23.271 261.830,22.752 262.427 C 22.385 262.849,21.800 263.159,21.365 263.161 C 20.047 263.166,18.713 264.856,18.713 266.520 C 18.713 269.386,22.290 271.155,24.031 269.152 C 24.553 268.552,24.932 268.421,26.152 268.421 C 27.320 268.421,27.715 268.296,28.002 267.836 C 28.227 267.477,28.684 267.251,29.190 267.251 C 29.702 267.251,30.251 266.976,30.647 266.520 C 31.058 266.047,31.589 265.789,32.152 265.789 C 32.721 265.789,33.128 265.588,33.333 265.205 C 33.587 264.730,33.946 264.620,35.237 264.620 C 36.612 264.620,36.894 264.520,37.308 263.889 C 37.635 263.390,38.053 263.158,38.628 263.158 C 39.152 263.158,39.606 262.938,39.834 262.573 C 40.121 262.113,40.516 261.988,41.686 261.988 C 42.894 261.988,43.302 261.851,43.860 261.257 C 44.274 260.816,44.870 260.526,45.362 260.526 C 45.879 260.526,46.293 260.312,46.491 259.942 C 46.745 259.468,47.103 259.357,48.381 259.357 C 49.714 259.357,50.046 259.244,50.533 258.626 C 50.923 258.130,51.396 257.895,52.005 257.895 C 52.604 257.895,53.008 257.700,53.216 257.310 C 53.414 256.940,53.829 256.725,54.344 256.725 C 54.848 256.725,55.400 256.447,55.793 255.994 C 56.307 255.403,56.699 255.263,57.840 255.263 C 58.981 255.263,59.373 255.123,59.887 254.532 C 60.298 254.059,60.829 253.801,61.391 253.801 C 61.961 253.801,62.368 253.600,62.573 253.216 C 62.827 252.742,63.185 252.632,64.477 252.632 C 65.852 252.632,66.134 252.532,66.547 251.901 C 66.875 251.401,67.293 251.170,67.867 251.170 C 68.392 251.170,68.846 250.949,69.074 250.585 C 69.317 250.196,69.756 250.000,70.385 250.000 C 71.072 250.000,71.463 249.799,71.811 249.269 C 72.223 248.640,72.508 248.538,73.854 248.538 C 75.119 248.538,75.478 248.426,75.731 247.953 C 75.936 247.570,76.343 247.368,76.913 247.368 C 77.475 247.368,78.006 247.111,78.417 246.637 C 78.939 246.037,79.318 245.906,80.538 245.906 C 81.706 245.906,82.101 245.782,82.388 245.322 C 82.613 244.962,83.070 244.737,83.577 244.737 C 84.078 244.737,84.670 244.450,85.088 244.006 C 85.636 243.422,86.059 243.275,87.183 243.275 C 88.275 243.275,88.674 243.143,88.957 242.690 C 89.200 242.301,89.639 242.105,90.268 242.105 C 90.955 242.105,91.346 241.905,91.694 241.374 C 92.009 240.892,92.442 240.643,92.965 240.643 C 93.432 240.643,94.039 240.343,94.444 239.912 C 94.993 239.329,95.415 239.181,96.540 239.181 C 97.632 239.181,98.030 239.050,98.313 238.596 C 98.556 238.207,98.995 238.012,99.625 238.012 C 100.312 238.012,100.703 237.811,101.050 237.281 C 101.463 236.651,101.747 236.550,103.101 236.550 C 104.357 236.550,104.747 236.432,105.039 235.965 C 105.278 235.582,105.720 235.380,106.323 235.380 C 106.981 235.380,107.379 235.172,107.722 234.649 C 108.054 234.141,108.465 233.918,109.069 233.918 C 109.620 233.918,110.070 233.705,110.302 233.333 C 110.589 232.873,110.984 232.749,112.154 232.749 C 113.362 232.749,113.770 232.611,114.327 232.018 C 114.742 231.577,115.338 231.287,115.830 231.287 C 116.347 231.287,116.761 231.072,116.959 230.702 C 117.213 230.227,117.571 230.117,118.863 230.117 C 120.238 230.117,120.520 230.017,120.933 229.386 C 121.276 228.863,121.674 228.655,122.332 228.655 C 122.934 228.655,123.377 228.454,123.616 228.070 C 123.899 227.617,124.298 227.485,125.390 227.485 C 126.514 227.485,126.937 227.338,127.485 226.754 C 127.901 226.312,128.496 226.023,128.992 226.023 C 129.543 226.023,129.968 225.784,130.290 225.292 C 130.633 224.769,131.030 224.561,131.688 224.561 C 132.291 224.561,132.734 224.360,132.973 223.977 C 133.265 223.510,133.655 223.392,134.910 223.392 C 136.265 223.392,136.549 223.291,136.961 222.661 C 137.294 222.153,137.705 221.930,138.308 221.930 C 138.860 221.930,139.310 221.716,139.542 221.345 C 139.829 220.885,140.223 220.760,141.394 220.760 C 142.602 220.760,143.009 220.623,143.567 220.029 C 143.982 219.588,144.578 219.298,145.070 219.298 C 145.587 219.298,146.001 219.084,146.199 218.713 C 146.397 218.343,146.811 218.129,147.328 218.129 C 147.820 218.129,148.416 217.839,148.830 217.398 C 149.388 216.804,149.796 216.667,151.004 216.667 C 152.174 216.667,152.569 216.542,152.856 216.082 C 153.086 215.714,153.538 215.497,154.075 215.497 C 154.637 215.497,155.125 215.248,155.503 214.766 C 155.982 214.157,156.327 214.035,157.569 214.035 C 158.743 214.035,159.137 213.911,159.425 213.450 C 159.647 213.094,160.106 212.865,160.599 212.865 C 161.097 212.865,161.651 212.585,162.043 212.135 C 162.569 211.530,162.942 211.404,164.200 211.404 C 165.501 211.404,165.792 211.297,166.201 210.673 C 166.534 210.165,166.945 209.942,167.548 209.942 C 168.099 209.942,168.549 209.728,168.781 209.357 C 169.024 208.968,169.463 208.772,170.093 208.772 C 170.780 208.772,171.171 208.571,171.518 208.041 C 171.930 207.412,172.215 207.310,173.561 207.310 C 174.826 207.310,175.185 207.198,175.439 206.725 C 175.647 206.335,176.051 206.140,176.649 206.140 C 177.259 206.140,177.732 205.906,178.122 205.409 C 178.609 204.791,178.941 204.678,180.274 204.678 C 181.552 204.678,181.910 204.567,182.164 204.094 C 182.366 203.716,182.776 203.509,183.322 203.509 C 183.876 203.509,184.367 203.256,184.743 202.778 C 185.133 202.282,185.606 202.047,186.216 202.047 C 186.815 202.047,187.218 201.852,187.427 201.462 C 187.675 200.998,188.039 200.877,189.194 200.877 C 190.380 200.877,190.764 200.743,191.283 200.146 C 191.679 199.691,192.228 199.415,192.740 199.415 C 193.246 199.415,193.703 199.190,193.928 198.830 C 194.215 198.370,194.609 198.246,195.780 198.246 C 196.988 198.246,197.395 198.108,197.953 197.515 C 198.369 197.072,198.963 196.784,199.459 196.784 C 200.011 196.784,200.436 196.545,200.758 196.053 C 201.109 195.516,201.495 195.322,202.207 195.322 C 202.920 195.322,203.226 195.167,203.363 194.737 C 203.519 194.245,203.805 194.152,205.168 194.152 C 206.547 194.152,206.872 194.044,207.362 193.421 C 207.741 192.940,208.229 192.690,208.791 192.690 C 209.327 192.690,209.780 192.473,210.009 192.105 C 210.297 191.645,210.691 191.520,211.861 191.520 C 213.069 191.520,213.477 191.383,214.035 190.789 C 214.449 190.348,215.045 190.058,215.538 190.058 C 216.054 190.058,216.468 189.844,216.667 189.474 C 216.915 189.009,217.279 188.889,218.433 188.889 C 219.619 188.889,220.004 188.754,220.522 188.158 C 220.919 187.702,221.468 187.427,221.980 187.427 C 222.485 187.427,222.943 187.202,223.167 186.842 C 223.410 186.453,223.849 186.257,224.479 186.257 C 225.166 186.257,225.556 186.057,225.904 185.526 C 226.317 184.897,226.601 184.795,227.955 184.795 C 229.211 184.795,229.601 184.678,229.892 184.211 C 230.105 183.871,230.574 183.626,231.014 183.626 C 231.442 183.626,232.067 183.309,232.456 182.895 C 233.018 182.296,233.419 182.164,234.666 182.164 C 235.969 182.164,236.260 182.058,236.669 181.433 C 237.002 180.925,237.413 180.702,238.016 180.702 C 238.567 180.702,239.017 180.488,239.249 180.117 C 239.489 179.734,239.931 179.532,240.534 179.532 C 241.192 179.532,241.589 179.324,241.932 178.801 C 242.346 178.170,242.628 178.070,244.002 178.070 C 245.294 178.070,245.652 177.960,245.906 177.485 C 246.105 177.115,246.519 176.901,247.035 176.901 C 247.528 176.901,248.124 176.611,248.538 176.170 C 249.087 175.585,249.509 175.439,250.639 175.439 C 251.691 175.439,252.181 175.289,252.553 174.854 C 252.829 174.532,253.416 174.269,253.859 174.269 C 254.396 174.269,254.825 174.025,255.144 173.538 C 255.556 172.908,255.841 172.807,257.195 172.807 C 258.450 172.807,258.841 172.689,259.132 172.222 C 259.354 171.866,259.814 171.637,260.306 171.637 C 260.804 171.637,261.359 171.357,261.751 170.906 C 262.147 170.451,262.696 170.175,263.208 170.175 C 263.713 170.175,264.171 169.950,264.395 169.591 C 264.683 169.130,265.077 169.006,266.247 169.006 C 267.455 169.006,267.863 168.869,268.421 168.275 C 268.826 167.844,269.433 167.544,269.900 167.544 C 270.423 167.544,270.856 167.295,271.172 166.813 C 271.586 166.181,271.867 166.082,273.242 166.082 C 274.534 166.082,274.892 165.972,275.146 165.497 C 275.344 165.127,275.758 164.912,276.275 164.912 C 276.767 164.912,277.363 164.622,277.778 164.181 C 278.195 163.737,278.788 163.450,279.288 163.450 C 279.795 163.450,280.252 163.225,280.477 162.865 C 280.765 162.405,281.159 162.281,282.328 162.281 C 283.547 162.281,283.926 162.150,284.448 161.550 C 284.860 161.077,285.390 160.819,285.953 160.819 C 286.522 160.819,286.929 160.617,287.135 160.234 C 287.383 159.770,287.747 159.649,288.901 159.649 C 290.087 159.649,290.472 159.515,290.990 158.918 C 291.387 158.462,291.936 158.187,292.448 158.187 C 292.953 158.187,293.411 157.962,293.635 157.602 C 293.923 157.142,294.317 157.018,295.487 157.018 C 296.695 157.018,297.103 156.880,297.661 156.287 C 298.075 155.846,298.671 155.556,299.163 155.556 C 299.680 155.556,300.094 155.341,300.292 154.971 C 300.491 154.600,300.905 154.386,301.421 154.386 C 301.914 154.386,302.510 154.096,302.924 153.655 C 303.473 153.071,303.895 152.924,305.024 152.924 C 306.166 152.924,306.558 152.784,307.072 152.193 C 307.468 151.737,308.017 151.462,308.530 151.462 C 309.035 151.462,309.492 151.237,309.717 150.877 C 310.004 150.417,310.399 150.292,311.567 150.292 C 312.787 150.292,313.166 150.162,313.688 149.561 C 314.099 149.088,314.630 148.830,315.192 148.830 C 315.762 148.830,316.169 148.629,316.374 148.246 C 316.572 147.875,316.986 147.661,317.503 147.661 C 317.995 147.661,318.592 147.371,319.006 146.930 C 319.548 146.352,319.980 146.199,321.058 146.199 C 322.053 146.199,322.568 146.040,322.953 145.614 C 323.244 145.292,323.792 145.029,324.170 145.029 C 324.548 145.029,325.144 144.700,325.493 144.298 C 326.021 143.691,326.390 143.567,327.674 143.567 C 328.920 143.567,329.280 143.454,329.532 142.982 C 329.737 142.599,330.144 142.398,330.714 142.398 C 331.276 142.398,331.807 142.140,332.218 141.667 C 332.746 141.059,333.115 140.936,334.399 140.936 C 335.645 140.936,336.005 140.822,336.257 140.351 C 336.455 139.981,336.870 139.766,337.386 139.766 C 337.878 139.766,338.475 139.476,338.889 139.035 C 339.294 138.604,339.901 138.304,340.368 138.304 C 340.891 138.304,341.324 138.055,341.640 137.573 C 342.054 136.942,342.335 136.842,343.710 136.842 C 345.002 136.842,345.360 136.732,345.614 136.257 C 345.812 135.887,346.226 135.673,346.743 135.673 C 347.235 135.673,347.831 135.383,348.246 134.942 C 348.804 134.348,349.211 134.211,350.419 134.211 C 351.589 134.211,351.984 134.086,352.271 133.626 C 352.503 133.254,352.953 133.041,353.505 133.041 C 354.108 133.041,354.519 132.818,354.851 132.310 C 355.180 131.809,355.597 131.579,356.177 131.579 C 356.661 131.579,357.237 131.329,357.524 130.994 C 357.895 130.561,358.387 130.409,359.424 130.409 C 360.551 130.409,360.946 130.268,361.458 129.678 C 361.825 129.256,362.411 128.946,362.845 128.944 C 364.152 128.939,365.497 127.248,365.497 125.612 C 365.497 123.905,364.102 122.222,362.687 122.222 C 362.153 122.222,361.701 122.004,361.471 121.637 C 361.159 121.138,360.789 121.053,358.937 121.053 C 356.971 121.053,356.714 120.984,356.193 120.322 C 355.649 119.630,355.462 119.591,352.733 119.591 C 350.165 119.591,349.808 119.526,349.483 119.006 C 349.151 118.474,348.801 118.421,345.618 118.421 C 342.208 118.421,342.107 118.402,341.640 117.690 C 341.183 116.993,341.027 116.959,338.321 116.959 C 335.671 116.959,335.436 116.910,334.795 116.228 C 334.155 115.547,333.917 115.497,331.306 115.497 C 328.820 115.497,328.462 115.431,328.138 114.912 C 327.806 114.381,327.456 114.327,324.319 114.327 C 321.000 114.327,320.841 114.299,320.230 113.596 C 319.633 112.910,319.420 112.865,316.739 112.865 C 314.200 112.865,313.843 112.801,313.518 112.281 C 313.186 111.750,312.836 111.696,309.699 111.696 C 306.380 111.696,306.221 111.668,305.610 110.965 C 305.018 110.283,304.791 110.234,302.260 110.234 C 299.907 110.234,299.478 110.156,299.044 109.649 C 298.610 109.142,298.182 109.064,295.814 109.064 C 293.280 109.064,293.035 109.012,292.398 108.333 C 291.740 107.634,291.563 107.602,288.263 107.602 C 285.115 107.602,284.789 107.552,284.503 107.018 C 284.223 106.494,283.891 106.433,281.327 106.433 C 278.652 106.433,278.420 106.385,277.778 105.702 C 277.138 105.021,276.900 104.971,274.288 104.971 C 271.802 104.971,271.444 104.905,271.120 104.386 C 270.789 103.855,270.439 103.801,267.302 103.801 C 263.982 103.801,263.823 103.773,263.213 103.070 C 262.619 102.388,262.394 102.339,259.848 102.339 C 257.316 102.339,257.070 102.287,256.433 101.608 C 255.793 100.927,255.555 100.877,252.943 100.877 C 250.457 100.877,250.099 100.811,249.775 100.292 C 249.444 99.761,249.094 99.708,245.957 99.708 C 242.637 99.708,242.478 99.679,241.868 98.977 C 241.271 98.290,241.058 98.246,238.376 98.246 C 235.837 98.246,235.480 98.181,235.156 97.661 C 234.832 97.142,234.474 97.076,231.984 97.076 C 229.339 97.076,229.145 97.034,228.603 96.345 C 228.048 95.639,227.909 95.614,224.585 95.614 C 221.515 95.614,221.086 95.551,220.614 95.029 C 220.158 94.525,219.713 94.444,217.403 94.444 C 214.921 94.444,214.671 94.390,214.035 93.713 C 213.378 93.014,213.201 92.982,209.893 92.982 C 206.754 92.982,206.404 92.929,206.072 92.398 C 205.749 91.879,205.391 91.813,202.905 91.813 C 200.293 91.813,200.055 91.763,199.415 91.082 C 198.775 90.401,198.537 90.351,195.926 90.351 C 193.440 90.351,193.082 90.285,192.758 89.766 C 192.426 89.235,192.076 89.181,188.937 89.181 C 185.630 89.181,185.453 89.150,184.795 88.450 C 184.160 87.774,183.909 87.719,181.433 87.719 C 178.957 87.719,178.706 87.665,178.070 86.988 C 177.430 86.307,177.192 86.257,174.581 86.257 C 172.095 86.257,171.737 86.191,171.413 85.673 C 171.081 85.141,170.731 85.088,167.592 85.088 C 164.285 85.088,164.108 85.056,163.450 84.357 C 162.810 83.676,162.572 83.626,159.961 83.626 C 157.475 83.626,157.117 83.560,156.793 83.041 C 156.468 82.520,156.111 82.456,153.540 82.456 C 150.782 82.456,150.630 82.423,150.173 81.725 C 149.705 81.011,149.610 80.994,146.116 80.994 C 142.855 80.994,142.506 80.942,142.173 80.409 C 141.850 79.891,141.491 79.825,139.031 79.825 C 136.433 79.825,136.212 79.777,135.618 79.094 C 135.005 78.389,134.853 78.363,131.450 78.363 C 128.235 78.363,127.886 78.310,127.553 77.778 C 127.230 77.260,126.871 77.193,124.411 77.193 C 121.813 77.193,121.593 77.146,120.998 76.462 C 120.401 75.775,120.189 75.731,117.501 75.731 C 114.940 75.731,114.608 75.670,114.327 75.146 C 114.041 74.611,113.715 74.561,110.514 74.561 C 107.145 74.561,106.990 74.534,106.378 73.830 C 105.788 73.152,105.552 73.099,103.091 73.095 C 100.409 73.090,99.467 72.848,99.834 72.255 C 99.966 72.041,101.469 71.930,104.236 71.930 C 108.369 71.930,108.446 71.918,109.012 71.199 C 109.584 70.472,109.612 70.468,114.432 70.468 C 118.978 70.468,119.297 70.432,119.591 69.883 C 119.881 69.340,120.203 69.298,124.082 69.298 C 128.161 69.298,128.277 69.281,128.947 68.567 C 129.625 67.846,129.695 67.836,134.397 67.836 C 138.861 67.836,139.180 67.800,139.474 67.251 C 139.768 66.702,140.086 66.667,144.740 66.667 L 149.694 66.667 150.173 65.936 L 150.652 65.205 155.556 65.205 L 160.459 65.205 160.938 64.474 C 161.412 63.750,161.458 63.743,165.640 63.743 C 169.563 63.743,169.885 63.701,170.175 63.158 C 170.469 62.609,170.788 62.573,175.415 62.573 L 180.342 62.573 180.821 61.842 L 181.300 61.111 186.194 61.111 C 190.771 61.111,191.111 61.073,191.453 60.526 C 191.790 59.985,192.134 59.942,196.048 59.942 C 200.238 59.942,200.284 59.935,200.758 59.211 C 201.237 58.480,201.240 58.480,206.031 58.480 C 210.463 58.480,210.862 58.435,211.325 57.895 C 211.787 57.355,212.188 57.310,216.534 57.310 C 221.179 57.310,221.252 57.300,221.930 56.579 C 222.600 55.865,222.716 55.848,226.795 55.848 C 230.674 55.848,230.996 55.806,231.287 55.263 C 231.580 54.715,231.899 54.678,236.416 54.678 C 241.189 54.678,241.238 54.672,241.868 53.947 C 242.497 53.223,242.550 53.216,247.272 53.216 C 251.725 53.216,252.066 53.178,252.407 52.632 C 252.744 52.092,253.089 52.047,256.891 52.047 C 260.906 52.047,261.026 52.028,261.696 51.316 C 262.373 50.595,262.446 50.585,267.105 50.585 C 271.765 50.585,271.837 50.575,272.515 49.854 C 273.193 49.132,273.261 49.123,277.972 49.123 C 282.427 49.123,282.768 49.084,283.109 48.538 C 283.450 47.991,283.791 47.953,288.368 47.953 L 293.261 47.953 293.740 47.222 C 294.214 46.499,294.262 46.491,298.423 46.491 C 302.310 46.491,302.654 46.447,302.992 45.906 C 303.333 45.360,303.674 45.322,308.205 45.322 C 313.011 45.322,313.058 45.315,313.688 44.591 C 314.318 43.866,314.367 43.860,319.140 43.860 C 323.657 43.860,323.975 43.823,324.269 43.275 C 324.560 42.732,324.881 42.690,328.790 42.690 C 332.931 42.690,333.008 42.678,333.573 41.959 C 334.145 41.232,334.174 41.228,338.994 41.228 C 343.540 41.228,343.858 41.192,344.152 40.643 C 344.446 40.095,344.764 40.058,349.281 40.058 C 354.054 40.058,354.103 40.052,354.733 39.327 C 355.356 38.611,355.454 38.596,359.553 38.596 C 363.421 38.596,363.765 38.552,364.103 38.012 C 364.445 37.465,364.785 37.427,369.362 37.427 L 374.256 37.427 374.734 36.696 C 375.190 36.001,375.350 35.965,378.001 35.965 L 380.789 35.965 381.769 34.956 C 382.592 34.108,382.749 33.732,382.749 32.602 C 382.749 31.472,382.592 31.096,381.769 30.249 L 380.789 29.240 378.001 29.240 C 375.350 29.240,375.190 29.276,374.734 29.971 " stroke="none" fill="#040404" fill-rule="evenodd"></path><path id="path2" d="" stroke="none" fill="#f01014" fill-rule="evenodd"></path><path id="path3" d="" stroke="none" fill="#f01014" fill-rule="evenodd"></path><path id="path4" d="" stroke="none" fill="#f01014" fill-rule="evenodd"></path></g></svg>