<?xml version="1.0" encoding="UTF-8"?>
<!-- Created with Inkscape (http://www.inkscape.org/) -->
<svg width="793.7" height="1122.5" version="1.1" viewBox="0 0 210 297" xmlns="http://www.w3.org/2000/svg" xmlns:cc="http://creativecommons.org/ns#" xmlns:dc="http://purl.org/dc/elements/1.1/" xmlns:rdf="http://www.w3.org/1999/02/22-rdf-syntax-ns#" xmlns:xlink="http://www.w3.org/1999/xlink">
 <defs>
  <clipPath id="clipPath4146">
   <use width="100%" height="100%" xlink:href="#g4142"/>
  </clipPath>
  <clipPath id="clipPath4233">
   <use width="100%" height="100%" xlink:href="#g4229"/>
  </clipPath>
 </defs>
 <metadata>
  <rdf:RDF>
   <cc:Work rdf:about="">
    <dc:format>image/svg+xml</dc:format>
    <dc:type rdf:resource="http://purl.org/dc/dcmitype/StillImage"/>
    <dc:title/>
   </cc:Work>
  </rdf:RDF>
 </metadata>
 <g transform="translate(0 8.3923e-6)">
  <g transform="matrix(4.6512 0 0 3.932 -430.01 -282.01)" clip-path="url(#clipPath4233)">
   <g id="g4229">
    <g transform="matrix(.26458 0 0 .26458 87.988 71.221)" clip-path="url(#clipPath4146)">
     <g id="g4142">
      <a>
       <g transform="translate(-10.526 3.9472)">
        <path class="st1" d="m145.3 169.6h-78.9c0.4 1.9 4.8 3.6 11.7 4.9-0.1 0.3-0.2 0.6-0.2 0.9 0 1.1 0.9 2 2 2h52.1c1.1 0 2-0.9 2-2 0-0.3-0.1-0.6-0.2-0.9 6.7-1.2 11.1-2.9 11.5-4.9z" style="fill:#282829"/>
        <path class="st1" d="m140.2 104.6c0.3-2.5 0.5-4.8 0.6-6.8h-69.8c0.6 17.2 10.5 54.2 24 68.4h21.7c5.3-5.5 10-14.5 13.8-24.4 0.8 0.1 1.7 0.2 2.5 0.2 10.7 0 19.4-8.7 19.4-19.4 0-8.1-5-15.1-12.2-18zm-7.1 31.5h-0.4c3-8.7 5.2-17.7 6.6-25.5 4.3 2.3 7.3 6.8 7.3 12 0 7.5-6.1 13.5-13.5 13.5z" style="fill:#282829"/>
        <path class="st1" d="m112.3 79.3c1.4 1.5 0.7 3.5-0.1 5.2-0.5 1.1-1.3 2.1-1.4 3.4-0.2 1.9 2 2.8 3 3.2 0.5 0.2-0.3 1.6-0.7 1.4-2-0.9-3.9-2.2-3-5.2 0.6-2.1 4-5.7 2.1-7.8-0.3-0.3-0.2-0.6 0.1-0.2z" style="fill:#282829"/>
        <path class="st1" d="m99.6 77.9c1.4 1.5 0.7 3.5-0.1 5.2-0.5 1.1-1.3 2.1-1.4 3.4-0.2 1.9 2 2.8 3 3.2 0.5 0.2-0.3 1.6-0.7 1.4-2-0.9-3.9-2.2-3-5.2 0.6-2.1 4-5.7 2.1-7.8-0.4-0.3-0.3-0.6 0.1-0.2z" style="fill:#282829"/>
        <path class="st1" d="m105.5 75.9c1.6 2.1 0.8 4.9-0.2 7.3-0.6 1.5-1.4 3-1.6 4.8-0.2 2.7 2.3 3.9 3.3 4.5 0.5 0.3-0.4 2.2-0.8 2-2.2-1.2-4.3-3-3.3-7.3 0.7-2.9 4.5-8 2.3-10.9-0.2-0.5 0-0.9 0.3-0.4z" style="fill:#282829"/>
       </g>
      </a>
     </g>
    </g>
   </g>
  </g>
 </g>
</svg>
