<?xml version="1.0" encoding="UTF-8"?>
<svg width="400pt" height="400pt" version="1.0" viewBox="0 0 400 400" xmlns="http://www.w3.org/2000/svg" xmlns:cc="http://creativecommons.org/ns#" xmlns:dc="http://purl.org/dc/elements/1.1/" xmlns:osb="http://www.openswatchbook.org/uri/2009/osb" xmlns:rdf="http://www.w3.org/1999/02/22-rdf-syntax-ns#" xmlns:xlink="http://www.w3.org/1999/xlink">
 
 <style type="text/css">
    .gufa{
        animation-name: gufun;
        animation-duration: 5s;
        animation-iteration-count: infinite;
        animation-directiion: alternate;
        top: 0;
    }
    @keyframes gufun {
        0% {fill: #FFAD1F; fill-opacity:0,8;}
        50%{fill: white; fill-opacity:0,3;}
        100%{fill: #FFAD1F; fill-opacity:0,7;}
    }
    .gufa_2{
        animation-name: gufan;
        animation-duration: 2s;
        animation-iteration-count: infinite;
        animation-directiion: alternate;
        top: 0;
    }
    @keyframes gufan {
        0% {fill: #FFAD1F; fill-opacity:0,8;}
        50%{fill: white; fill-opacity:0,3;}
        100%{fill: #FFAD1F; fill-opacity:0,7;}
    }
 </style>


 <defs>
  <linearGradient id="linearGradient6113">
   <stop style="stop-color:#800000" offset="0"/>
   <stop style="stop-color:#e20000" offset="1"/>
  </linearGradient>
  <radialGradient id="radialGradient6115" cx="2000.3" cy="912.25" r="1999.7" gradientTransform="matrix(1 0 0 .45444 0 497.69)" gradientUnits="userSpaceOnUse" xlink:href="#linearGradient6113"/>
  <radialGradient id="radialGradient6131" cx="2000.3" cy="912.27" r="2000.2" gradientTransform="matrix(1 0 0 .45459 0 497.56)" gradientUnits="userSpaceOnUse" xlink:href="#linearGradient6113"/>
  <radialGradient id="radialGradient6179" cx="250.13" cy="401.12" r="186.85" gradientTransform="matrix(1 0 0 .20518 0 318.82)" gradientUnits="userSpaceOnUse">
   <stop style="stop-color:#916f6f" offset="0"/>
   <stop style="stop-color:#916f6f;stop-opacity:0" offset="1"/>
  </radialGradient>
 </defs>
 <metadata>Created by potrace 1.16, written by Peter Selinger 2001-2019
  <rdf:RDF>
   <cc:Work rdf:about="">
    <dc:format>image/svg+xml</dc:format>
    <dc:type rdf:resource="http://purl.org/dc/dcmitype/StillImage"/>
    <dc:title/>
   </cc:Work>
  </rdf:RDF>
 </metadata>
 <path d="m436.99 401.12a186.85 38.339 0 0 1-174.82 38.259 186.85 38.339 0 0 1-197.34-33.331 186.85 38.339 0 0 1 149.4-42.552 186.85 38.339 0 0 1 216.58 27.85" style="fill-rule:evenodd;fill:url(#radialGradient6179);opacity:.94"/>
 <g>
  <path d="m396.79 298.76a196.9 78.166 0 0 1-184.22 78.004 196.9 78.166 0 0 1-207.95-67.957 196.9 78.166 0 0 1 157.44-86.757 196.9 78.166 0 0 1 228.23 56.783" style="fill-rule:evenodd;fill:#ff5555;opacity:.94"/>
 </g>
 <g transform="translate(0 400) scale(.1 -.1)" fill="#000000">
  <path d="m1950 3988c0-7 20-44 44-81 108-166 84-315-117-722-129-261-160-336-181-438-59-285 45-504 312-654 52-29 99-53 106-53 32 0 92 91 101 156 7 49 3 55-65 89-101 51-178 106-233 164-76 82-100 137-105 237-5 112 19 195 128 429 48 105 102 232 118 281 78 232 66 419-34 557-32 45-74 64-74 35z" style="fill:#ffff00;opacity:.94"
  class="gufa_2">
   <title>gufa2</title>
  </path>
  <path d="m1260 3772c0-9 14-35 32-56 59-72 66-165 20-281-22-57-88-171-182-320-77-120-109-196-118-278-22-190 58-307 283-413 92-44 100-46 124-33 35 20 71 76 71 110 0 26-8 33-114 83-246 118-299 235-198 437 23 46 67 127 98 179s70 129 87 170c28 66 31 87 32 175 0 85-3 106-22 140-43 79-113 133-113 87z" style="fill:#ffff00;opacity:.94"
  class="gufa">
   <title>gufa1</title>
  </path>
  <path d="m2750 3630c0-10 13-34 29-52 37-43 47-64 56-115 15-90-33-203-189-453-125-200-140-238-141-365 0-86 3-107 25-150 13-27 44-69 68-93 80-77 260-170 307-158 32 8 75 72 75 112 0 30-5 34-112 87-283 138-314 262-140 544 72 116 135 248 153 316 15 63 7 192-15 237-22 42-85 110-103 110-7 0-13-9-13-20z" style="fill:#ffff00;opacity:.94"
  class="gufa">
   <title>gufa3</title>
  </path>
  <path d="m1690 1813c-61.793-3.745-167.91-16.887-278.31-33.018-184.4-26.942-380.79-62.221-402.69-75.982-4-2 6-34 21-71 72-171 80-388 23-596-9-32-18-56-20-54s-10 44-18 94c-29 180-93 334-194 464-47 60-62 74-83 72-14-1-74-23-134-50-289-129-481-289-566-469-28-59-33-83-36-166-4-79 0-108 17-160 119-357 687-643 1476-745 202-26 809-26 1010 0 900 117 1495 466 1495 876 0 195-115 369-343 522-92 61-274 155-283 146-3-3 0-24 6-46 22-81 31-208 21-296-10-85-49-250-58-242-2 3-9 36-14 73-33 234-121 417-279 575l-75 75-105 22c-213 45-394 69-642 87l-87 6 29-65c90-199 102-441 31-649l-18-52-7 68c-18 168-97 370-194 497-70 93-187 200-215 198-12-1-47-3-77-5z" style="fill-rule:evenodd;fill:url(#radialGradient6131);stroke:url(#radialGradient6115)"/>
  <path d="m7.4444 900.77c722.05-224.38 1415.2-536.17 2076.3-514.57 1049.6 34.301 1923.7 483.02 1923.7 483.02s-79.701-596.04-798.9-735.22c-652.22-126.22-1325.1-230.78-1928.1-126.56-603 104.22-1451.7 617.89-1273 893.33z" style="fill:#510000"/>
 </g>
</svg>
