<?xml version="1.0" encoding="UTF-8"?>
<svg width="505pt" height="741pt" version="1.0" viewBox="0 0 505 741" xmlns="http://www.w3.org/2000/svg" xmlns:cc="http://creativecommons.org/ns#" xmlns:dc="http://purl.org/dc/elements/1.1/" xmlns:rdf="http://www.w3.org/1999/02/22-rdf-syntax-ns#">
 <metadata>Created by potrace 1.16, written by Peter Selinger 2001-2019
  <rdf:RDF>
   <cc:Work rdf:about="">
    <dc:format>image/svg+xml</dc:format>
    <dc:type rdf:resource="http://purl.org/dc/dcmitype/StillImage"/>
    <dc:title/>
   </cc:Work>
  </rdf:RDF>
 </metadata>
 <g transform="translate(0 741) scale(.1 -.1)" fill="#000000">
  <path d="m160 3705v-3555h4740v7110h-4740v-3555zm3010 2395c401-29 757-90 1070-182 58-17 108-33 112-35 8-4-86-148-103-158-5-3-53 8-106 24-298 92-580 142-1018 182-314 28-1022 20-1365-16-325-34-662-102-875-175-32-11-63-20-69-20-9 0-68 80-109 147-10 17 9 24 193 74 368 100 750 152 1260 173 156 6 863-4 1010-14zm-828-343c7-8 51-64 98-124 60-79 88-108 97-101 6 5 51 61 100 125l88 116 260-6c335-9 615-38 850-88 118-26 325-90 325-101 0-22-103-115-190-173-97-65-217-125-250-125-12 0-21 12-28 43-14 54-70 112-140 144-69 32-210 60-349 68l-111 7-11-53c-6-30-54-283-106-564-52-280-102-544-109-585-8-41-24-124-35-185-11-60-75-400-141-755s-128-685-137-735c-9-49-19-93-23-98-3-4-16 46-28 110-12 65-42 226-66 358-47 249-335 1793-360 1925-8 41-24 127-36 190-42 230-71 374-77 383-7 12-193 0-297-19-99-19-173-46-225-84-42-30-81-93-81-130 0-14-7-20-23-20-30 0-150 58-240 116-76 50-197 159-197 179 0 12 132 58 255 89 91 23 274 54 425 72 269 32 738 45 762 21zm-1092-4014c0-9-18-33-40-55-41-38-41-38-125-38h-85l-1-172c-1-95-1-188 0-205l3-33h-102v410h-180l-40 40c-72 72-78 70 265 70 277 0 305-2 305-17zm784 9c7-13-35-68-66-86-21-13-62-16-218-16h-192l-39 39c-72 72-74 71 235 71 151 0 277-4 280-8zm796-3c0-20-41-69-70-84-22-12-68-15-195-15h-165v-90h430v-320h-532l19 32c11 18 34 43 53 55 31 22 43 23 201 23h169v100h-440v148c0 82 3 152 7 155 12 12 523 8 523-4zm360-194v-205h203c112 0 206-3 210-6 10-10-20-60-49-83-25-20-39-21-240-21h-214v520h90v-205zm1230 200c0-20-35-66-63-84-32-19-49-21-216-21-197 0-220 5-260 56-43 54-45 54 259 54 154 0 280-2 280-5zm-2387-201c12-12-22-62-56-83-32-19-49-21-227-21h-192l-39 39c-72 72-74 71 234 71 151 0 276-3 280-6zm2369-4c2-5 2-77 0-160l-3-150h-89v210h-340v-210h-90v320h259c161 0 261-4 263-10zm-2368-208c8-13-28-62-60-83-26-17-50-19-221-19h-192l-41 38c-75 72-76 72 234 72 151 0 277-4 280-8z" style="fill:#ff0000"/>
 </g>
</svg>
